<mxfile host="app.diagrams.net" modified="2020-08-26T02:43:21.663Z" agent="5.0 (Windows)" etag="fkhuWWrCUZCTjur-kxfk" version="13.6.5" type="github">
  <diagram id="C5RBs43oDa-KdzZeNtuy" name="Page-1">
    <mxGraphModel dx="782" dy="471" grid="1" gridSize="10" guides="1" tooltips="1" connect="1" arrows="1" fold="1" page="1" pageScale="1" pageWidth="827" pageHeight="1169" math="0" shadow="0">
      <root>
        <mxCell id="WIyWlLk6GJQsqaUBKTNV-0" />
        <mxCell id="WIyWlLk6GJQsqaUBKTNV-1" parent="WIyWlLk6GJQsqaUBKTNV-0" />
        <mxCell id="WIyWlLk6GJQsqaUBKTNV-3" value="Memilih Clean Type" style="rounded=1;whiteSpace=wrap;html=1;fontSize=12;glass=0;strokeWidth=1;shadow=0;" parent="WIyWlLk6GJQsqaUBKTNV-1" vertex="1">
          <mxGeometry x="165" y="25" width="120" height="40" as="geometry" />
        </mxCell>
        <mxCell id="WIyWlLk6GJQsqaUBKTNV-12" value="Catatan Tambahan (Opsional)" style="rounded=1;whiteSpace=wrap;html=1;fontSize=12;glass=0;strokeWidth=1;shadow=0;" parent="WIyWlLk6GJQsqaUBKTNV-1" vertex="1">
          <mxGeometry x="165" y="350" width="120" height="40" as="geometry" />
        </mxCell>
        <mxCell id="9XL6SRJAWU4iaDGBNn17-0" value="Memilih Jadwal Pembersihan" style="rounded=1;whiteSpace=wrap;html=1;fontSize=12;glass=0;strokeWidth=1;shadow=0;" vertex="1" parent="WIyWlLk6GJQsqaUBKTNV-1">
          <mxGeometry x="165" y="110" width="120" height="40" as="geometry" />
        </mxCell>
        <mxCell id="9XL6SRJAWU4iaDGBNn17-1" value="&lt;h1&gt;&lt;u&gt;&lt;font style=&quot;font-size: 14px&quot;&gt;Jadwal Pembersihan&lt;/font&gt;&lt;/u&gt;&lt;br&gt;&lt;/h1&gt;&lt;p&gt;* Tanggal&lt;/p&gt;&lt;p&gt;* Waktu (Jam)&lt;/p&gt;&lt;p&gt;* Recursion pembersihan (one time, weekly, every 2 week, every 4 week&lt;br&gt;&lt;/p&gt;" style="text;html=1;fillColor=none;spacing=0;spacingTop=-10;whiteSpace=wrap;overflow=hidden;rounded=0;" vertex="1" parent="WIyWlLk6GJQsqaUBKTNV-1">
          <mxGeometry x="300" y="85" width="190" height="140" as="geometry" />
        </mxCell>
        <mxCell id="9XL6SRJAWU4iaDGBNn17-2" value="Tersedia ?" style="rhombus;whiteSpace=wrap;html=1;shadow=0;fontFamily=Helvetica;fontSize=12;align=center;strokeWidth=1;spacing=6;spacingTop=-4;" vertex="1" parent="WIyWlLk6GJQsqaUBKTNV-1">
          <mxGeometry x="185" y="180" width="80" height="50" as="geometry" />
        </mxCell>
        <mxCell id="9XL6SRJAWU4iaDGBNn17-3" value="Sold Out" style="rounded=1;whiteSpace=wrap;html=1;fontSize=12;glass=0;strokeWidth=1;shadow=0;" vertex="1" parent="WIyWlLk6GJQsqaUBKTNV-1">
          <mxGeometry x="30" y="185" width="90" height="40" as="geometry" />
        </mxCell>
        <mxCell id="9XL6SRJAWU4iaDGBNn17-4" value="&lt;div&gt;Menentukan Lokasi&lt;/div&gt;&lt;div&gt;Rumah&lt;br&gt;&lt;/div&gt;" style="rounded=1;whiteSpace=wrap;html=1;fontSize=12;glass=0;strokeWidth=1;shadow=0;" vertex="1" parent="WIyWlLk6GJQsqaUBKTNV-1">
          <mxGeometry x="165" y="270" width="120" height="40" as="geometry" />
        </mxCell>
        <mxCell id="9XL6SRJAWU4iaDGBNn17-7" value="" style="endArrow=classic;html=1;entryX=0.5;entryY=0;entryDx=0;entryDy=0;" edge="1" parent="WIyWlLk6GJQsqaUBKTNV-1" target="9XL6SRJAWU4iaDGBNn17-0">
          <mxGeometry width="50" height="50" relative="1" as="geometry">
            <mxPoint x="224.5" y="65" as="sourcePoint" />
            <mxPoint x="224.5" y="95" as="targetPoint" />
          </mxGeometry>
        </mxCell>
        <mxCell id="9XL6SRJAWU4iaDGBNn17-10" value="" style="endArrow=classic;html=1;" edge="1" parent="WIyWlLk6GJQsqaUBKTNV-1">
          <mxGeometry width="50" height="50" relative="1" as="geometry">
            <mxPoint x="224.5" y="150" as="sourcePoint" />
            <mxPoint x="224.5" y="180" as="targetPoint" />
          </mxGeometry>
        </mxCell>
        <mxCell id="9XL6SRJAWU4iaDGBNn17-11" value="No" style="edgeStyle=orthogonalEdgeStyle;rounded=0;html=1;jettySize=auto;orthogonalLoop=1;fontSize=11;endArrow=block;endFill=0;endSize=8;strokeWidth=1;shadow=0;labelBackgroundColor=none;" edge="1" parent="WIyWlLk6GJQsqaUBKTNV-1">
          <mxGeometry y="10" relative="1" as="geometry">
            <mxPoint as="offset" />
            <mxPoint x="185" y="204.5" as="sourcePoint" />
            <mxPoint x="125" y="204.5" as="targetPoint" />
          </mxGeometry>
        </mxCell>
        <mxCell id="9XL6SRJAWU4iaDGBNn17-12" value="Yes" style="rounded=0;html=1;jettySize=auto;orthogonalLoop=1;fontSize=11;endArrow=block;endFill=0;endSize=8;strokeWidth=1;shadow=0;labelBackgroundColor=none;edgeStyle=orthogonalEdgeStyle;" edge="1" parent="WIyWlLk6GJQsqaUBKTNV-1">
          <mxGeometry y="20" relative="1" as="geometry">
            <mxPoint as="offset" />
            <mxPoint x="224.5" y="230" as="sourcePoint" />
            <mxPoint x="224.5" y="270" as="targetPoint" />
          </mxGeometry>
        </mxCell>
        <mxCell id="9XL6SRJAWU4iaDGBNn17-13" value="&lt;h1&gt;&lt;u&gt;&lt;font style=&quot;font-size: 14px&quot;&gt;Lokasi Pembersihan&lt;/font&gt;&lt;/u&gt;&lt;br&gt;&lt;/h1&gt;&lt;p&gt;* Kirim alamat lengkap&lt;/p&gt;&lt;p&gt;* Nanti bertemu siapa&lt;br&gt;&lt;/p&gt;&lt;p&gt;&lt;br&gt;&lt;/p&gt;" style="text;html=1;strokeColor=none;fillColor=none;spacing=5;spacingTop=-20;whiteSpace=wrap;overflow=hidden;rounded=0;" vertex="1" parent="WIyWlLk6GJQsqaUBKTNV-1">
          <mxGeometry x="300" y="240" width="190" height="100" as="geometry" />
        </mxCell>
        <mxCell id="9XL6SRJAWU4iaDGBNn17-16" value="" style="endArrow=classic;html=1;" edge="1" parent="WIyWlLk6GJQsqaUBKTNV-1">
          <mxGeometry width="50" height="50" relative="1" as="geometry">
            <mxPoint x="224.5" y="310" as="sourcePoint" />
            <mxPoint x="225" y="350" as="targetPoint" />
          </mxGeometry>
        </mxCell>
        <mxCell id="9XL6SRJAWU4iaDGBNn17-17" value="&lt;h1 style=&quot;font-size: 14px&quot;&gt;&lt;u&gt;Type clean&lt;/u&gt;&lt;br&gt;&lt;/h1&gt;&lt;p&gt;* standart, standart plus, deep clean, moving in/out (misal)&lt;br&gt;&lt;/p&gt;&lt;p&gt;&lt;br&gt;&lt;/p&gt;" style="text;html=1;strokeColor=none;fillColor=none;spacing=5;spacingTop=-20;whiteSpace=wrap;overflow=hidden;rounded=0;" vertex="1" parent="WIyWlLk6GJQsqaUBKTNV-1">
          <mxGeometry x="300" y="25" width="190" height="60" as="geometry" />
        </mxCell>
        <mxCell id="9XL6SRJAWU4iaDGBNn17-20" value="&lt;h1&gt;ASUMSI SETELAH SIGN UP &amp;amp; SIGN IN&lt;/h1&gt;" style="text;html=1;strokeColor=none;fillColor=none;spacing=5;spacingTop=-20;whiteSpace=wrap;overflow=hidden;rounded=0;labelBackgroundColor=#FFCC99;fontColor=#FFFFFF;labelBorderColor=none;spacingLeft=0;" vertex="1" parent="WIyWlLk6GJQsqaUBKTNV-1">
          <mxGeometry x="490" y="85" width="230" height="90" as="geometry" />
        </mxCell>
      </root>
    </mxGraphModel>
  </diagram>
</mxfile>
